<svg height="41" width="37" viewBox="0 0 37 41" xmlns="http://www.w3.org/2000/svg" data-logo="logo">
        <g transform="translate(0, 0)&#10;    rotate(0 18 20.5)" id="logogram" style="opacity: 1;"><path fill="#0072E5" d="M6.16873 2.59476V0.159973H0.603516V2.59476V7.81215V16.8556V22.4208V22.5948C0.603516 32.2958 8.46773 40.16 18.1687 40.16C27.8697 40.16 35.734 32.2958 35.734 22.5948V22.4208V16.8556V7.81215V2.59476V0.159973H30.1687V2.59476H20.7774V2.24693V0.159973H15.2122V2.24693V2.59476H6.16873ZM15.2122 34.2278C10.0635 32.9233 6.24137 28.2904 6.16976 22.7531C6.76288 22.8968 7.34535 23.0864 7.91177 23.321C9.34658 23.9154 10.6503 24.7865 11.7484 25.8846C12.8466 26.9828 13.7177 28.2865 14.312 29.7213C14.9039 31.1502 15.2097 32.6813 15.2122 34.2278ZM15.6836 21.9494C16.5551 22.8209 17.3293 23.7803 17.9948 24.8106C18.6603 23.7803 19.4346 22.8209 20.306 21.9494C21.1775 21.078 22.1369 20.3037 23.1672 19.6382C22.1369 18.9727 21.1775 18.1985 20.306 17.327C19.4346 16.4556 18.6603 15.4961 17.9948 14.4658C17.3293 15.4961 16.5551 16.4556 15.6836 17.327C14.8122 18.1985 13.8527 18.9727 12.8224 19.6382C13.8527 20.3037 14.8122 21.078 15.6836 21.9494ZM30.1685 22.6743C30.1315 28.3706 26.1256 33.1248 20.7774 34.3104V34.2469C20.7774 32.6939 21.0833 31.1561 21.6776 29.7213C22.272 28.2865 23.1431 26.9828 24.2412 25.8846C25.3394 24.7865 26.6431 23.9154 28.0779 23.321C28.7549 23.0406 29.4548 22.8244 30.1685 22.6743ZM14.7904 8.15997C14.6604 8.63356 14.5007 9.09956 14.312 9.55519C13.7177 10.99 12.8466 12.2937 11.7484 13.3918C10.6503 14.49 9.34658 15.3611 7.91177 15.9554C7.34503 16.1902 6.76221 16.3799 6.16873 16.5236V8.15997H14.7904ZM30.1687 16.6023V8.15997H21.1993C21.3293 8.63356 21.4889 9.09956 21.6776 9.55519C22.272 10.99 23.1431 12.2937 24.2412 13.3918C25.3394 14.49 26.6431 15.3611 28.0779 15.9554C28.755 16.2359 29.455 16.4521 30.1687 16.6023Z" clip-rule="evenodd" fill-rule="evenodd"/></g>
        <g transform="" id="logotype" style="opacity: 1;"/>
        
      </svg>